<svg xmlns="http://www.w3.org/2000/svg" xmlns:xlink="http://www.w3.org/1999/xlink" contentStyleType="text/css" data-diagram-type="SEQUENCE" height="1133px" preserveAspectRatio="none" style="width:852px;height:1133px;background:#FFFFFF;" version="1.1" viewBox="0 0 852 1133" width="852px" zoomAndPan="magnify"><title>Work Request,</title><defs/><g><text fill="#000000" font-family="sans-serif" font-size="14" font-weight="bold" lengthAdjust="spacing" textLength="101.3086" x="377.092" y="28.5625">Work Request,</text><text fill="#000000" font-family="sans-serif" font-size="14" font-weight="bold" lengthAdjust="spacing" textLength="297.9443" x="278.7742" y="45.502">Prerequisite Pending Externally to the Store</text><rect fill="#FFFFFF" height="1059.6572" style="stroke:#181818;stroke-width:0.5;" width="80.1597" x="1" y="60.8789"/><text fill="#000000" font-family="sans-serif" font-size="13" font-weight="bold" lengthAdjust="spacing" textLength="74.1597" x="4" y="73.4727">Client Node</text><rect fill="#FFFFFF" height="1059.6572" style="stroke:#181818;stroke-width:0.5;" width="298.0278" x="130.8589" y="60.8789"/><text fill="#000000" font-family="sans-serif" font-size="13" font-weight="bold" lengthAdjust="spacing" textLength="99.7471" x="229.9993" y="73.4727">Response Node</text><rect fill="#FFFFFF" height="1059.6572" style="stroke:#181818;stroke-width:0.5;" width="298.0278" x="430.8867" y="60.8789"/><text fill="#000000" font-family="sans-serif" font-size="13" font-weight="bold" lengthAdjust="spacing" textLength="114.5181" x="522.6416" y="73.4727">Prerequisite Node</text><g><title>Client</title><rect fill="#FFFFFF" height="51.459" style="stroke:#181818;stroke-width:1;" width="10" x="36.0798" y="132.8184"/></g><g><title>Client</title><rect fill="#FFFFFF" height="102.459" style="stroke:#181818;stroke-width:1;" width="10" x="36.0798" y="214.0068"/></g><g><title>Store</title><rect fill="#FFFFFF" height="395.2949" style="stroke:#181818;stroke-width:1;" width="10" x="154.5537" y="214.0068"/></g><g><title>Store</title><rect fill="#FFFFFF" height="28" style="stroke:#181818;stroke-width:1;" width="10" x="159.5537" y="251.7363"/></g><g><title>Store</title><rect fill="#FFFFFF" height="40.7295" style="stroke:#181818;stroke-width:1;" width="10" x="159.5537" y="354.1953"/></g><g><title>Store</title><rect fill="#FFFFFF" height="28" style="stroke:#181818;stroke-width:1;" width="10" x="159.5537" y="455.3838"/></g><g><title>Store</title><rect fill="#FFFFFF" height="157.918" style="stroke:#181818;stroke-width:1;" width="10" x="154.5537" y="913.4082"/></g><g><title>Store</title><rect fill="#FFFFFF" height="120.1885" style="stroke:#181818;stroke-width:1;" width="10" x="159.5537" y="951.1377"/></g><g><title>Store</title><rect fill="#FFFFFF" height="77.459" style="stroke:#181818;stroke-width:1;" width="10" x="164.5537" y="993.8672"/></g><g><title>Store</title><rect fill="#FFFFFF" height="34.7295" style="stroke:#181818;stroke-width:1;" width="10" x="169.5537" y="1036.5967"/></g><g><title>Worker</title><rect fill="#FFFFFF" height="36.21" style="stroke:#181818;stroke-width:1;" width="10" x="388.5986" y="1081.3262"/></g><g><title>Store</title><rect fill="#FFFFFF" height="111.1885" style="stroke:#181818;stroke-width:1;" width="10" x="454.5815" y="579.5723"/></g><g><title>Store</title><rect fill="#FFFFFF" height="28" style="stroke:#181818;stroke-width:1;" width="10" x="459.5815" y="662.7607"/></g><g><title>Store</title><rect fill="#FFFFFF" height="157.918" style="stroke:#181818;stroke-width:1;" width="10" x="454.5815" y="755.4902"/></g><g><title>Store</title><rect fill="#FFFFFF" height="120.1885" style="stroke:#181818;stroke-width:1;" width="10" x="459.5815" y="793.2197"/></g><g><title>Store</title><rect fill="#FFFFFF" height="77.459" style="stroke:#181818;stroke-width:1;" width="10" x="464.5815" y="835.9492"/></g><g><title>Store</title><rect fill="#FFFFFF" height="34.7295" style="stroke:#181818;stroke-width:1;" width="10" x="469.5815" y="878.6787"/></g><g><title>Worker</title><rect fill="#FFFFFF" height="572.9424" style="stroke:#FFFFFF;stroke-width:1;" width="10" x="688.6265" y="132.8184"/><line style="stroke:#181818;stroke-width:1;" x1="688.6265" x2="688.6265" y1="132.8184" y2="705.7607"/><line style="stroke:#181818;stroke-width:1;" x1="698.6265" x2="698.6265" y1="132.8184" y2="705.7607"/><line style="stroke:#181818;stroke-width:1;" x1="688.6265" x2="698.6265" y1="132.8184" y2="132.8184"/></g><g><title>Worker</title><rect fill="#FFFFFF" height="21.7295" style="stroke:#FFFFFF;stroke-width:1;" width="10" x="688.6265" y="733.7607"/><line style="stroke:#181818;stroke-width:1;" x1="688.6265" x2="688.6265" y1="733.7607" y2="755.4902"/><line style="stroke:#181818;stroke-width:1;" x1="698.6265" x2="698.6265" y1="733.7607" y2="755.4902"/><line style="stroke:#181818;stroke-width:1;" x1="688.6265" x2="698.6265" y1="755.4902" y2="755.4902"/></g><g><title>Location Service</title><rect fill="#FFFFFF" height="29.7295" style="stroke:#181818;stroke-width:1;" width="10" x="788.2036" y="154.5479"/></g><g><title>Location Service</title><rect fill="#FFFFFF" height="29.7295" style="stroke:#181818;stroke-width:1;" width="10" x="788.2036" y="520.1133"/></g><g><title>Client</title><rect fill="transparent" height="582.9424" width="8" x="37.0798" y="122.8184"/><line style="stroke:#181818;stroke-width:0.5;" x1="41.0691" x2="41.0691" y1="122.8184" y2="705.7607"/></g><line style="stroke:#383838;stroke-width:1;stroke-dasharray:1.0,4.0;" x1="41.0691" x2="41.0691" y1="705.7607" y2="733.7607"/><g><title>Client</title><rect fill="transparent" height="392.7754" width="8" x="37.0798" y="733.7607"/><line style="stroke:#181818;stroke-width:0.5;" x1="41.0691" x2="41.0691" y1="733.7607" y2="1126.5361"/></g><g><title>Store</title><rect fill="transparent" height="582.9424" width="8" x="155.5537" y="122.8184"/><line style="stroke:#181818;stroke-width:0.5;" x1="158.8589" x2="158.8589" y1="122.8184" y2="705.7607"/></g><line style="stroke:#383838;stroke-width:1;stroke-dasharray:1.0,4.0;" x1="158.8589" x2="158.8589" y1="705.7607" y2="733.7607"/><g><title>Store</title><rect fill="transparent" height="392.7754" width="8" x="155.5537" y="733.7607"/><line style="stroke:#181818;stroke-width:0.5;" x1="158.8589" x2="158.8589" y1="733.7607" y2="1126.5361"/></g><g><title>Worker</title><rect fill="transparent" height="45.9697" width="8" x="389.5986" y="1080.5664"/><line style="stroke:#181818;stroke-width:0.5;" x1="393.3105" x2="393.3105" y1="1080.5664" y2="1126.5361"/></g><g><title>Store</title><rect fill="transparent" height="582.9424" width="8" x="455.5815" y="122.8184"/><line style="stroke:#181818;stroke-width:0.5;" x1="458.8867" x2="458.8867" y1="122.8184" y2="705.7607"/></g><line style="stroke:#383838;stroke-width:1;stroke-dasharray:1.0,4.0;" x1="458.8867" x2="458.8867" y1="705.7607" y2="733.7607"/><g><title>Store</title><rect fill="transparent" height="392.7754" width="8" x="455.5815" y="733.7607"/><line style="stroke:#181818;stroke-width:0.5;" x1="458.8867" x2="458.8867" y1="733.7607" y2="1126.5361"/></g><g><title>Worker</title><rect fill="transparent" height="582.9424" width="8" x="689.6265" y="122.8184"/><line style="stroke:#181818;stroke-width:0.5;" x1="693.3384" x2="693.3384" y1="122.8184" y2="705.7607"/></g><line style="stroke:#383838;stroke-width:1;stroke-dasharray:1.0,4.0;" x1="693.3384" x2="693.3384" y1="705.7607" y2="733.7607"/><g><title>Worker</title><rect fill="transparent" height="392.7754" width="8" x="689.6265" y="733.7607"/><line style="stroke:#181818;stroke-width:0.5;" x1="693.3384" x2="693.3384" y1="733.7607" y2="1126.5361"/></g><g><title>Location Service</title><rect fill="transparent" height="582.9424" width="8" x="789.2036" y="122.8184"/><line style="stroke:#181818;stroke-width:0.5;" x1="792.9146" x2="792.9146" y1="122.8184" y2="705.7607"/></g><line style="stroke:#383838;stroke-width:1;stroke-dasharray:1.0,4.0;" x1="792.9146" x2="792.9146" y1="705.7607" y2="733.7607"/><g><title>Location Service</title><rect fill="transparent" height="392.7754" width="8" x="789.2036" y="733.7607"/><line style="stroke:#181818;stroke-width:0.5;" x1="792.9146" x2="792.9146" y1="733.7607" y2="1126.5361"/></g><rect fill="#E3E3E3" height="30.9395" rx="2.5" ry="2.5" style="stroke:#181818;stroke-width:0.5;" width="52.0215" x="15.0691" y="90.8789"/><text fill="#000000" font-family="sans-serif" font-size="14" lengthAdjust="spacing" textLength="38.0215" x="22.0691" y="111.4414">Client</text><rect fill="#E3E3E3" height="30.9395" rx="2.5" ry="2.5" style="stroke:#181818;stroke-width:0.5;" width="49.3896" x="134.8589" y="90.8789"/><text fill="#000000" font-family="sans-serif" font-size="14" lengthAdjust="spacing" textLength="35.3896" x="141.8589" y="111.4414">Store</text><rect fill="#E3E3E3" height="30.9395" rx="2.5" ry="2.5" style="stroke:#181818;stroke-width:0.5;" width="49.3896" x="434.8867" y="90.8789"/><text fill="#000000" font-family="sans-serif" font-size="14" lengthAdjust="spacing" textLength="35.3896" x="441.8867" y="111.4414">Store</text><rect fill="#E3E3E3" height="30.9395" rx="2.5" ry="2.5" style="stroke:#181818;stroke-width:0.5;" width="62.5762" x="662.3384" y="90.8789"/><text fill="#000000" font-family="sans-serif" font-size="14" lengthAdjust="spacing" textLength="48.5762" x="669.3384" y="111.4414">Worker</text><text fill="#000000" font-family="sans-serif" font-size="14" lengthAdjust="spacing" textLength="110.5781" x="734.9146" y="119.4414">Location Service</text><path d="M775.2036,69.8789 C775.2036,59.8789 793.2036,59.8789 793.2036,59.8789 C793.2036,59.8789 811.2036,59.8789 811.2036,69.8789 L811.2036,95.8789 C811.2036,105.8789 793.2036,105.8789 793.2036,105.8789 C793.2036,105.8789 775.2036,105.8789 775.2036,95.8789 L775.2036,69.8789 " fill="#E3E3E3" style="stroke:#181818;stroke-width:1.5;"/><path d="M775.2036,69.8789 C775.2036,79.8789 793.2036,79.8789 793.2036,79.8789 C793.2036,79.8789 811.2036,79.8789 811.2036,69.8789 " fill="transparent" style="stroke:#181818;stroke-width:1.5;"/><g><title>Client</title><rect fill="#FFFFFF" height="51.459" style="stroke:#181818;stroke-width:1;" width="10" x="36.0798" y="132.8184"/></g><g><title>Client</title><rect fill="#FFFFFF" height="102.459" style="stroke:#181818;stroke-width:1;" width="10" x="36.0798" y="214.0068"/></g><g><title>Store</title><rect fill="#FFFFFF" height="395.2949" style="stroke:#181818;stroke-width:1;" width="10" x="154.5537" y="214.0068"/></g><g><title>Store</title><rect fill="#FFFFFF" height="28" style="stroke:#181818;stroke-width:1;" width="10" x="159.5537" y="251.7363"/></g><g><title>Store</title><rect fill="#FFFFFF" height="40.7295" style="stroke:#181818;stroke-width:1;" width="10" x="159.5537" y="354.1953"/></g><g><title>Store</title><rect fill="#FFFFFF" height="28" style="stroke:#181818;stroke-width:1;" width="10" x="159.5537" y="455.3838"/></g><g><title>Store</title><rect fill="#FFFFFF" height="157.918" style="stroke:#181818;stroke-width:1;" width="10" x="154.5537" y="913.4082"/></g><g><title>Store</title><rect fill="#FFFFFF" height="120.1885" style="stroke:#181818;stroke-width:1;" width="10" x="159.5537" y="951.1377"/></g><g><title>Store</title><rect fill="#FFFFFF" height="77.459" style="stroke:#181818;stroke-width:1;" width="10" x="164.5537" y="993.8672"/></g><g><title>Store</title><rect fill="#FFFFFF" height="34.7295" style="stroke:#181818;stroke-width:1;" width="10" x="169.5537" y="1036.5967"/></g><g><title>Worker</title><rect fill="#FFFFFF" height="36.21" style="stroke:#181818;stroke-width:1;" width="10" x="388.5986" y="1081.3262"/></g><g><title>Store</title><rect fill="#FFFFFF" height="111.1885" style="stroke:#181818;stroke-width:1;" width="10" x="454.5815" y="579.5723"/></g><g><title>Store</title><rect fill="#FFFFFF" height="28" style="stroke:#181818;stroke-width:1;" width="10" x="459.5815" y="662.7607"/></g><g><title>Store</title><rect fill="#FFFFFF" height="157.918" style="stroke:#181818;stroke-width:1;" width="10" x="454.5815" y="755.4902"/></g><g><title>Store</title><rect fill="#FFFFFF" height="120.1885" style="stroke:#181818;stroke-width:1;" width="10" x="459.5815" y="793.2197"/></g><g><title>Store</title><rect fill="#FFFFFF" height="77.459" style="stroke:#181818;stroke-width:1;" width="10" x="464.5815" y="835.9492"/></g><g><title>Store</title><rect fill="#FFFFFF" height="34.7295" style="stroke:#181818;stroke-width:1;" width="10" x="469.5815" y="878.6787"/></g><g><title>Worker</title><rect fill="#FFFFFF" height="572.9424" style="stroke:#FFFFFF;stroke-width:1;" width="10" x="688.6265" y="132.8184"/><line style="stroke:#181818;stroke-width:1;" x1="688.6265" x2="688.6265" y1="132.8184" y2="705.7607"/><line style="stroke:#181818;stroke-width:1;" x1="698.6265" x2="698.6265" y1="132.8184" y2="705.7607"/><line style="stroke:#181818;stroke-width:1;" x1="688.6265" x2="698.6265" y1="132.8184" y2="132.8184"/></g><g><title>Worker</title><rect fill="#FFFFFF" height="21.7295" style="stroke:#FFFFFF;stroke-width:1;" width="10" x="688.6265" y="733.7607"/><line style="stroke:#181818;stroke-width:1;" x1="688.6265" x2="688.6265" y1="733.7607" y2="755.4902"/><line style="stroke:#181818;stroke-width:1;" x1="698.6265" x2="698.6265" y1="733.7607" y2="755.4902"/><line style="stroke:#181818;stroke-width:1;" x1="688.6265" x2="698.6265" y1="755.4902" y2="755.4902"/></g><g><title>Location Service</title><rect fill="#FFFFFF" height="29.7295" style="stroke:#181818;stroke-width:1;" width="10" x="788.2036" y="154.5479"/></g><g><title>Location Service</title><rect fill="#FFFFFF" height="29.7295" style="stroke:#181818;stroke-width:1;" width="10" x="788.2036" y="520.1133"/></g><polygon fill="#181818" points="776.2036,150.5479,786.2036,154.5479,776.2036,158.5479" style="stroke:#181818;stroke-width:1;"/><line style="stroke:#181818;stroke-width:1;" x1="46.0798" x2="782.2036" y1="154.5479" y2="154.5479"/><text fill="#000000" font-family="sans-serif" font-size="13" lengthAdjust="spacing" textLength="75.8228" x="379.2303" y="149.4121">Locate work</text><polygon fill="#181818" points="52.0798,180.2773,42.0798,184.2773,52.0798,188.2773" style="stroke:#181818;stroke-width:1;"/><line style="stroke:#181818;stroke-width:1;stroke-dasharray:2.0,2.0;" x1="46.0798" x2="792.2036" y1="184.2773" y2="184.2773"/><text fill="#000000" font-family="sans-serif" font-size="13" lengthAdjust="spacing" textLength="157.6187" x="338.3324" y="179.1416">Location: Response Node</text><polygon fill="#181818" points="142.5537,210.0068,152.5537,214.0068,142.5537,218.0068" style="stroke:#181818;stroke-width:1;"/><line style="stroke:#181818;stroke-width:1;" x1="46.0798" x2="148.5537" y1="214.0068" y2="214.0068"/><text fill="#000000" font-family="sans-serif" font-size="13" lengthAdjust="spacing" textLength="84.4048" x="58.1144" y="208.8711">Request work</text><line style="stroke:#181818;stroke-width:1;" x1="169.5537" x2="211.5537" y1="243.7363" y2="243.7363"/><line style="stroke:#181818;stroke-width:1;" x1="211.5537" x2="211.5537" y1="243.7363" y2="256.7363"/><line style="stroke:#181818;stroke-width:1;" x1="170.5537" x2="211.5537" y1="256.7363" y2="256.7363"/><polygon fill="#181818" points="180.5537,252.7363,170.5537,256.7363,180.5537,260.7363" style="stroke:#181818;stroke-width:1;"/><text fill="#000000" font-family="sans-serif" font-size="13" lengthAdjust="spacing" textLength="130.8887" x="176.5537" y="238.6006">Set work state: PEND</text><polygon fill="#181818" points="52.0798,312.4658,42.0798,316.4658,52.0798,320.4658" style="stroke:#181818;stroke-width:1;"/><line style="stroke:#181818;stroke-width:1;stroke-dasharray:2.0,2.0;" x1="46.0798" x2="153.5537" y1="316.4658" y2="316.4658"/><text fill="#000000" font-family="sans-serif" font-size="13" lengthAdjust="spacing" textLength="27.1997" x="84.2169" y="311.3301">ACK</text><line style="stroke:#181818;stroke-width:1;" x1="164.5537" x2="211.5537" y1="341.1953" y2="341.1953"/><line style="stroke:#181818;stroke-width:1;" x1="211.5537" x2="211.5537" y1="341.1953" y2="354.1953"/><line style="stroke:#181818;stroke-width:1;" x1="170.5537" x2="211.5537" y1="354.1953" y2="354.1953"/><polygon fill="#181818" points="180.5537,350.1953,170.5537,354.1953,180.5537,358.1953" style="stroke:#181818;stroke-width:1;"/><text fill="#000000" font-family="sans-serif" font-size="13" lengthAdjust="spacing" textLength="99.9565" x="176.5537" y="336.0596">Get prereq state</text><line style="stroke:#181818;stroke-width:1;stroke-dasharray:2.0,2.0;" x1="169.5537" x2="211.5537" y1="393.9248" y2="393.9248"/><line style="stroke:#181818;stroke-width:1;stroke-dasharray:2.0,2.0;" x1="211.5537" x2="211.5537" y1="393.9248" y2="406.9248"/><line style="stroke:#181818;stroke-width:1;stroke-dasharray:2.0,2.0;" x1="164.5537" x2="211.5537" y1="406.9248" y2="406.9248"/><polygon fill="#181818" points="174.5537,402.9248,164.5537,406.9248,174.5537,410.9248" style="stroke:#181818;stroke-width:1;"/><text fill="#000000" font-family="sans-serif" font-size="13" lengthAdjust="spacing" textLength="57.2178" x="176.5537" y="388.7891">UNAVAIL</text><line style="stroke:#181818;stroke-width:1;" x1="169.5537" x2="211.5537" y1="447.3838" y2="447.3838"/><line style="stroke:#181818;stroke-width:1;" x1="211.5537" x2="211.5537" y1="447.3838" y2="460.3838"/><line style="stroke:#181818;stroke-width:1;" x1="170.5537" x2="211.5537" y1="460.3838" y2="460.3838"/><polygon fill="#181818" points="180.5537,456.3838,170.5537,460.3838,180.5537,464.3838" style="stroke:#181818;stroke-width:1;"/><text fill="#000000" font-family="sans-serif" font-size="13" lengthAdjust="spacing" textLength="175.5698" x="176.5537" y="426.5186">Set prereq state association:</text><text fill="#000000" font-family="sans-serif" font-size="13" lengthAdjust="spacing" textLength="138.8931" x="194.8921" y="442.248">AVAIL -&gt; Launch work</text><polygon fill="#181818" points="776.2036,516.1133,786.2036,520.1133,776.2036,524.1133" style="stroke:#181818;stroke-width:1;"/><line style="stroke:#181818;stroke-width:1;" x1="164.5537" x2="782.2036" y1="520.1133" y2="520.1133"/><text fill="#000000" font-family="sans-serif" font-size="13" lengthAdjust="spacing" textLength="118.9043" x="416.9265" y="514.9775">Locate prerequisite</text><polygon fill="#181818" points="175.5537,545.8428,165.5537,549.8428,175.5537,553.8428" style="stroke:#181818;stroke-width:1;"/><line style="stroke:#181818;stroke-width:1;stroke-dasharray:2.0,2.0;" x1="169.5537" x2="792.2036" y1="549.8428" y2="549.8428"/><text fill="#000000" font-family="sans-serif" font-size="13" lengthAdjust="spacing" textLength="146.2119" x="405.7727" y="544.707">Location of prerequisite</text><polygon fill="#181818" points="442.5815,575.5723,452.5815,579.5723,442.5815,583.5723" style="stroke:#181818;stroke-width:1;"/><line style="stroke:#181818;stroke-width:1;" x1="164.5537" x2="448.5815" y1="579.5723" y2="579.5723"/><text fill="#000000" font-family="sans-serif" font-size="13" lengthAdjust="spacing" textLength="125.2773" x="246.929" y="574.4365">Request prereq data</text><polygon fill="#181818" points="170.5537,605.3018,160.5537,609.3018,170.5537,613.3018" style="stroke:#181818;stroke-width:1;"/><line style="stroke:#181818;stroke-width:1;stroke-dasharray:2.0,2.0;" x1="164.5537" x2="453.5815" y1="609.3018" y2="609.3018"/><text fill="#000000" font-family="sans-serif" font-size="13" lengthAdjust="spacing" textLength="148.2749" x="232.9302" y="604.166">Prereq data state: PEND</text><line style="stroke:#181818;stroke-width:1;" x1="469.5815" x2="511.5815" y1="654.7607" y2="654.7607"/><line style="stroke:#181818;stroke-width:1;" x1="511.5815" x2="511.5815" y1="654.7607" y2="667.7607"/><line style="stroke:#181818;stroke-width:1;" x1="470.5815" x2="511.5815" y1="667.7607" y2="667.7607"/><polygon fill="#181818" points="480.5815,663.7607,470.5815,667.7607,480.5815,671.7607" style="stroke:#181818;stroke-width:1;"/><text fill="#000000" font-family="sans-serif" font-size="13" lengthAdjust="spacing" textLength="175.5698" x="476.5815" y="633.8955">Set prereq state association:</text><text fill="#000000" font-family="sans-serif" font-size="13" lengthAdjust="spacing" textLength="168.3716" x="480.1807" y="649.625">AVAIL -&gt; send to requester</text><line style="stroke:#181818;stroke-width:1;" x1="465.5815" x2="475.5815" y1="755.4902" y2="751.4902"/><line style="stroke:#181818;stroke-width:1;" x1="465.5815" x2="475.5815" y1="755.4902" y2="759.4902"/><line style="stroke:#181818;stroke-width:1;" x1="464.5815" x2="692.6265" y1="755.4902" y2="755.4902"/><text fill="#000000" font-family="sans-serif" font-size="13" lengthAdjust="spacing" textLength="71.6777" x="543.2651" y="750.3545">Prereq data</text><line style="stroke:#383838;stroke-width:2;" x1="684.6265" x2="702.6265" y1="746.4902" y2="764.4902"/><line style="stroke:#383838;stroke-width:2;" x1="684.6265" x2="702.6265" y1="764.4902" y2="746.4902"/><line style="stroke:#181818;stroke-width:1;" x1="464.5815" x2="511.5815" y1="780.2197" y2="780.2197"/><line style="stroke:#181818;stroke-width:1;" x1="511.5815" x2="511.5815" y1="780.2197" y2="793.2197"/><line style="stroke:#181818;stroke-width:1;" x1="470.5815" x2="511.5815" y1="793.2197" y2="793.2197"/><polygon fill="#181818" points="480.5815,789.2197,470.5815,793.2197,480.5815,797.2197" style="stroke:#181818;stroke-width:1;"/><text fill="#000000" font-family="sans-serif" font-size="13" lengthAdjust="spacing" textLength="63.3306" x="476.5815" y="775.084">Store data</text><line style="stroke:#181818;stroke-width:1;" x1="469.5815" x2="516.5815" y1="822.9492" y2="822.9492"/><line style="stroke:#181818;stroke-width:1;" x1="516.5815" x2="516.5815" y1="822.9492" y2="835.9492"/><line style="stroke:#181818;stroke-width:1;" x1="475.5815" x2="516.5815" y1="835.9492" y2="835.9492"/><polygon fill="#181818" points="485.5815,831.9492,475.5815,835.9492,485.5815,839.9492" style="stroke:#181818;stroke-width:1;"/><text fill="#000000" font-family="sans-serif" font-size="13" lengthAdjust="spacing" textLength="174.2178" x="481.5815" y="817.8135">Set prereq data state: AVAIL</text><line style="stroke:#181818;stroke-width:1;" x1="474.5815" x2="521.5815" y1="865.6787" y2="865.6787"/><line style="stroke:#181818;stroke-width:1;" x1="521.5815" x2="521.5815" y1="865.6787" y2="878.6787"/><line style="stroke:#181818;stroke-width:1;" x1="480.5815" x2="521.5815" y1="878.6787" y2="878.6787"/><polygon fill="#181818" points="490.5815,874.6787,480.5815,878.6787,490.5815,882.6787" style="stroke:#181818;stroke-width:1;"/><text fill="#000000" font-family="sans-serif" font-size="13" lengthAdjust="spacing" textLength="180.0449" x="486.5815" y="860.543">Get prereq state associations</text><line style="stroke:#181818;stroke-width:1;" x1="165.5537" x2="175.5537" y1="913.4082" y2="909.4082"/><line style="stroke:#181818;stroke-width:1;" x1="165.5537" x2="175.5537" y1="913.4082" y2="917.4082"/><line style="stroke:#181818;stroke-width:1;stroke-dasharray:2.0,2.0;" x1="164.5537" x2="458.5815" y1="913.4082" y2="913.4082"/><text fill="#000000" font-family="sans-serif" font-size="13" lengthAdjust="spacing" textLength="71.6777" x="276.2288" y="908.2725">Prereq data</text><line style="stroke:#181818;stroke-width:1;" x1="164.5537" x2="211.5537" y1="938.1377" y2="938.1377"/><line style="stroke:#181818;stroke-width:1;" x1="211.5537" x2="211.5537" y1="938.1377" y2="951.1377"/><line style="stroke:#181818;stroke-width:1;" x1="170.5537" x2="211.5537" y1="951.1377" y2="951.1377"/><polygon fill="#181818" points="180.5537,947.1377,170.5537,951.1377,180.5537,955.1377" style="stroke:#181818;stroke-width:1;"/><text fill="#000000" font-family="sans-serif" font-size="13" lengthAdjust="spacing" textLength="63.3306" x="176.5537" y="933.002">Store data</text><line style="stroke:#181818;stroke-width:1;" x1="169.5537" x2="216.5537" y1="980.8672" y2="980.8672"/><line style="stroke:#181818;stroke-width:1;" x1="216.5537" x2="216.5537" y1="980.8672" y2="993.8672"/><line style="stroke:#181818;stroke-width:1;" x1="175.5537" x2="216.5537" y1="993.8672" y2="993.8672"/><polygon fill="#181818" points="185.5537,989.8672,175.5537,993.8672,185.5537,997.8672" style="stroke:#181818;stroke-width:1;"/><text fill="#000000" font-family="sans-serif" font-size="13" lengthAdjust="spacing" textLength="174.2178" x="181.5537" y="975.7314">Set prereq data state: AVAIL</text><line style="stroke:#181818;stroke-width:1;" x1="174.5537" x2="221.5537" y1="1023.5967" y2="1023.5967"/><line style="stroke:#181818;stroke-width:1;" x1="221.5537" x2="221.5537" y1="1023.5967" y2="1036.5967"/><line style="stroke:#181818;stroke-width:1;" x1="180.5537" x2="221.5537" y1="1036.5967" y2="1036.5967"/><polygon fill="#181818" points="190.5537,1032.5967,180.5537,1036.5967,190.5537,1040.5967" style="stroke:#181818;stroke-width:1;"/><text fill="#000000" font-family="sans-serif" font-size="13" lengthAdjust="spacing" textLength="180.0449" x="186.5537" y="1018.4609">Get prereq state associations</text><line style="stroke:#181818;stroke-width:1;" x1="360.3105" x2="350.3105" y1="1071.3262" y2="1067.3262"/><line style="stroke:#181818;stroke-width:1;" x1="360.3105" x2="350.3105" y1="1071.3262" y2="1075.3262"/><line style="stroke:#181818;stroke-width:1;" x1="159.5537" x2="361.3105" y1="1071.3262" y2="1071.3262"/><text fill="#000000" font-family="sans-serif" font-size="13" lengthAdjust="spacing" textLength="79.2505" x="221.3069" y="1066.1904">Launch work</text><rect fill="#E3E3E3" height="30.9395" rx="2.5" ry="2.5" style="stroke:#181818;stroke-width:0.5;" width="62.5762" x="362.3105" y="1049.5967"/><text fill="#000000" font-family="sans-serif" font-size="14" lengthAdjust="spacing" textLength="48.5762" x="369.3105" y="1070.1592">Worker</text><!--SRC=[dLJBRjim4BppAnRkBQdz0Je4CD8WAEeOHeosbrmOQcqJeKc6f98OyCTtHL6oA3-GnWUPukxCxWw7yYzIM-xu5hP66x5nPeiGN8NCTn6_uQLvbteDAwvy5WaxXVHqKeHggtgHcLoXaXgNmV60wnreuusIPH-ChnLgWG_eFL_ZLCcr1e4we6D11YB-QzmBFDPfFdn_qWk7Zbwabm5XWRgiMxhxe7pDbTf1C10s2CjW73BsR3vWTAia4SBSb3Y2RwluOrG-I24jfqXAu1v4N36Y1O8sy4VqrcYF5mXYjHhlOzb-g6uVNHrxZwkSEvlc4_psKW4xg53om9yvDJwQ6S63D1gMwDwae2gKhZnZN0JvHcVJORkDf4Jp1-CRIYyWyc2Sv919F0v3vJIqPGh8D6CbdgUD0y7rTT6UyO0z0PgqNlvuND0qJJPjKce1YxlvZpQJKXje0TFRNoTQE68iu9xuR3oHXh6Tw_Ty-cVwStQ-YJw8fFL6o4Q89nsHDMR6AoqspNGTaVAnSDBLzjmmr1JCAezt7FPOmjHFRG1c3uB45SbqY6RAzJHADZkkyJyJ-zg8T1zTqnMvgrSXENaocR3aFOAqXR8U2KKV5xCxzgWzssQHhaocG1x7JAPMYEQWJoBkBupjUpAtzgYboiSODlwrdS4XdV1nR_PJqKkJV-9Mv7EtW9lqVOEhgoBp-f6hlh3HlIO7xFVxVm00]--></g></svg>