<?xml version="1.0" encoding="UTF-8" standalone="no"?>
<!DOCTYPE svg PUBLIC "-//W3C//DTD SVG 1.1//EN"
 "http://www.w3.org/Graphics/SVG/1.1/DTD/svg11.dtd">
<!-- Generated by graphviz version 12.2.1 (0)
 -->
<!-- Title: garbage_collection Pages: 1 -->
<svg width="712pt" height="121pt"
 viewBox="0.00 0.00 712.22 121.00" xmlns="http://www.w3.org/2000/svg" xmlns:xlink="http://www.w3.org/1999/xlink">
<g id="graph0" class="graph" transform="scale(1 1) rotate(0) translate(4 117)">
<title>garbage_collection</title>
<polygon fill="white" stroke="none" points="-4,4 -4,-117 708.22,-117 708.22,4 -4,4"/>
<!-- c1 -->
<g id="node1" class="node">
<title>c1</title>
<ellipse fill="none" stroke="black" cx="651.43" cy="-18" rx="52.79" ry="18"/>
<text text-anchor="middle" x="651.43" y="-13.32" font-family="Times,serif" font-size="14.00">Chunk 1</text>
</g>
<!-- c2 -->
<g id="node2" class="node">
<title>c2</title>
<ellipse fill="none" stroke="black" cx="651.43" cy="-95" rx="52.79" ry="18"/>
<text text-anchor="middle" x="651.43" y="-90.33" font-family="Times,serif" font-size="14.00">Chunk 2</text>
</g>
<!-- c3 -->
<g id="node3" class="node">
<title>c3</title>
<ellipse fill="none" stroke="black" cx="352.11" cy="-72" rx="52.79" ry="18"/>
<text text-anchor="middle" x="352.11" y="-67.33" font-family="Times,serif" font-size="14.00">Chunk 3</text>
</g>
<!-- comp2 -->
<g id="node7" class="node">
<title>comp2</title>
<polygon fill="none" stroke="black" points="562.65,-90 440.9,-90 440.9,-54 562.65,-54 562.65,-90"/>
<text text-anchor="middle" x="501.77" y="-67.33" font-family="Times,serif" font-size="14.00">Computation 2</text>
</g>
<!-- c3&#45;&gt;comp2 -->
<g id="edge7" class="edge">
<title>c3&#45;&gt;comp2</title>
<path fill="none" stroke="black" d="M405.17,-72C412.96,-72 421.1,-72 429.21,-72"/>
<polygon fill="black" stroke="black" points="429.09,-75.5 439.09,-72 429.09,-68.5 429.09,-75.5"/>
</g>
<!-- c4 -->
<g id="node4" class="node">
<title>c4</title>
<ellipse fill="none" stroke="black" cx="352.11" cy="-18" rx="52.79" ry="18"/>
<text text-anchor="middle" x="352.11" y="-13.32" font-family="Times,serif" font-size="14.00">Chunk 4</text>
</g>
<!-- comp1 -->
<g id="node6" class="node">
<title>comp1</title>
<polygon fill="none" stroke="black" points="562.65,-36 440.9,-36 440.9,0 562.65,0 562.65,-36"/>
<text text-anchor="middle" x="501.77" y="-13.32" font-family="Times,serif" font-size="14.00">Computation 1</text>
</g>
<!-- c4&#45;&gt;comp1 -->
<g id="edge5" class="edge">
<title>c4&#45;&gt;comp1</title>
<path fill="none" stroke="black" d="M405.17,-18C412.96,-18 421.1,-18 429.21,-18"/>
<polygon fill="black" stroke="black" points="429.09,-21.5 439.09,-18 429.09,-14.5 429.09,-21.5"/>
</g>
<!-- c5 -->
<g id="node5" class="node">
<title>c5</title>
<ellipse fill="none" stroke="black" cx="52.79" cy="-72" rx="52.79" ry="18"/>
<text text-anchor="middle" x="52.79" y="-67.33" font-family="Times,serif" font-size="14.00">Chunk 5</text>
</g>
<!-- comp3 -->
<g id="node8" class="node">
<title>comp3</title>
<polygon fill="none" stroke="black" points="263.32,-90 141.57,-90 141.57,-54 263.32,-54 263.32,-90"/>
<text text-anchor="middle" x="202.45" y="-67.33" font-family="Times,serif" font-size="14.00">Computation 3</text>
</g>
<!-- c5&#45;&gt;comp3 -->
<g id="edge1" class="edge">
<title>c5&#45;&gt;comp3</title>
<path fill="none" stroke="black" d="M105.85,-72C113.63,-72 121.78,-72 129.88,-72"/>
<polygon fill="black" stroke="black" points="129.77,-75.5 139.77,-72 129.77,-68.5 129.77,-75.5"/>
</g>
<!-- comp1&#45;&gt;c1 -->
<g id="edge6" class="edge">
<title>comp1&#45;&gt;c1</title>
<path fill="none" stroke="black" d="M562.83,-18C570.86,-18 579.12,-18 587.2,-18"/>
<polygon fill="black" stroke="black" points="586.96,-21.5 596.96,-18 586.96,-14.5 586.96,-21.5"/>
</g>
<!-- comp2&#45;&gt;c2 -->
<g id="edge8" class="edge">
<title>comp2&#45;&gt;c2</title>
<path fill="none" stroke="black" d="M562.83,-81.35C572.37,-82.84 582.22,-84.38 591.73,-85.86"/>
<polygon fill="black" stroke="black" points="591.19,-89.31 601.61,-87.39 592.26,-82.4 591.19,-89.31"/>
</g>
<!-- comp3&#45;&gt;c2 -->
<g id="edge2" class="edge">
<title>comp3&#45;&gt;c2</title>
<path fill="none" stroke="black" d="M259.17,-90.47C272.2,-94.01 286.13,-97.18 299.32,-99 400.14,-112.93 518.79,-106.99 589.14,-101.17"/>
<polygon fill="black" stroke="black" points="589.25,-104.67 598.92,-100.33 588.66,-97.7 589.25,-104.67"/>
</g>
<!-- comp3&#45;&gt;c3 -->
<g id="edge3" class="edge">
<title>comp3&#45;&gt;c3</title>
<path fill="none" stroke="black" d="M263.51,-72C271.54,-72 279.8,-72 287.88,-72"/>
<polygon fill="black" stroke="black" points="287.64,-75.5 297.64,-72 287.64,-68.5 287.64,-75.5"/>
</g>
<!-- comp3&#45;&gt;c4 -->
<g id="edge4" class="edge">
<title>comp3&#45;&gt;c4</title>
<path fill="none" stroke="black" d="M253.85,-53.57C270.14,-47.61 288.13,-41.03 304.16,-35.17"/>
<polygon fill="black" stroke="black" points="305.29,-38.48 313.48,-31.76 302.89,-31.91 305.29,-38.48"/>
</g>
</g>
</svg>
